<mxfile host="app.diagrams.net" modified="2024-04-09T12:39:02.847Z" agent="Mozilla/5.0 (Windows NT 10.0; Win64; x64) AppleWebKit/537.36 (KHTML, like Gecko) Chrome/123.0.0.0 Safari/537.36" version="24.2.3" etag="5iJ4z68lJ4njFTT0VLi1" type="github">
  <diagram name="第 1 页" id="ex3vgbBMrHSbKyE01gCo">
    <mxGraphModel>
      <root>
        <mxCell id="0" />
        <mxCell id="1" parent="0" />
      </root>
    </mxGraphModel>
  </diagram>
</mxfile>
